{"title":"The Assassin Next Door (2009) DVDRip XviD-SKITTLES","uid":5768844,"size":744115700,"categoryP":"video","categoryS":"movies","magnet":"?xt=urn:btih:dd2eb69eeb2b86d1ba98ff9c1fe8a167d4cae2e7&amp;dn=The+Assassin+Next+Door+%282009%29+DVDRip+XviD-SKITTLES&amp;tr=udp%3A%2F%2Ftracker.openbittorrent.com%3A80&amp;tr=udp%3A%2F%2Fopen.demonii.com%3A1337&amp;tr=udp%3A%2F%2Ftracker.coppersurfer.tk%3A6969&amp;tr=udp%3A%2F%2Fexodus.desync.com%3A6969","seeders":0,"leechers":0,"uploader":"SkittlesRG","files":-1,"time":1282031178,"description":"[img]http://leetleech.org/images/24613407701974396583.jpg[/img]\n\n[b]The Assassin Next Door (2009) DVDRip XviD-SKITTLES[/b]\n\n[img]http://leetleech.org/images/39185456263711143641.png[/img]\n\nVideo\nID                               : 0\nFormat                           : MPEG-4 Visual\nFormat profile                   : Advanced Simple@L5\nFormat settings, BVOP            : Yes\nFormat settings, QPel            : No\nFormat settings, GMC             : No warppoints\nFormat settings, Matrix          : Default (H.263)\nMuxing mode                      : Packed bitstream\nCodec ID                         : XVID\nCodec ID/Hint                    : XviD\nDuration                         : 1h 49mn\nBit rate                         : 770 Kbps\nWidth                            : 640 pixels\nHeight                           : 272 pixels\nDisplay aspect ratio             : 2.35:1\nFrame rate                       : 23.976 fps\nColor space                      : YUV\nChroma subsampling               : 4:2:0\nBit depth                        : 8 bits\nScan type                        : Progressive\nBits/(Pixel*Frame)               : 0.184\nStream size                      : 602 MiB (85%)\nWriting library                  : XviD 1.2.1 (UTC 2008-12-04)\n\nAudio\nID                               : 1\nFormat                           : MPEG Audio\nFormat version                   : Version 1\nFormat profile                   : Layer 3\nMode                             : Joint stereo\nCodec ID                         : 55\nCodec ID/Hint                    : MP3\nDuration                         : 1h 49mn\nBit rate mode                    : Constant\nBit rate                         : 128 Kbps\nChannel(s)                       : 2 channels\nSampling rate                    : 48.0 KHz\nVideo delay                      : 200ms\nStream size                      : 100 MiB (14%)\nAlignment                        : Split accross interleaves\nInterleave, duration             : 42 ms (1.00 video frame)\nInterleave, preload duration     : 500 ms\n &lt;a href=&quot;\nhttp://www.imdb.com/title/tt1198153/&quot; rel=&quot;nofollow&quot; target=&quot;_NEW&quot;&gt;\nhttp://www.imdb.com/title/tt1198153/&lt;/a&gt;\n\n[img]http://leetleech.org/images/46941880339015444838.png[/img]\n\nOlga Kurylenko\t... \tGalia\nNinette Tayeb\t... \tElinor (as Ninet Tayeb)\nLior Habra\t... \tBarbie's Friend\nHenry David\t... \tPeter\nZohar Shtrauss\t... \tElinor's Husband\nLiron Levo\t... \tRoni\nVladimir Friedman... \tMishka\nYana Goor\t... \tNina\nShalom Micahelashvili...Michael\n\n[img]http://leetleech.org/images/70187465700988366433.png[/img]\n\nGenre:\nAction | Drama\n\nPlot:\nIn an old apartment building on the wrong side of the tracks,\ntwo women, unknown to each other, live across the hall on the \nsecond floor...\n\n[img]http://leetleech.org/images/64476088802225496360.png[/img]\n\n[img]http://leetleech.org/images/80210391636939178378.png[/img]\n[img]http://leetleech.org/images/80107096128610705205.png[/img]\n[img]http://leetleech.org/images/07524571710787689069.png[/img]\n[img]http://leetleech.org/images/98341016260012408662.png[/img]\n[img]http://leetleech.org/images/47292035857566333243.png[/img]\n[img]http://leetleech.org/images/41083413496803608865.png[/img]","torrent":{"xt":"urn:btih:dd2eb69eeb2b86d1ba98ff9c1fe8a167d4cae2e7","amp;dn":"The+Assassin+Next+Door+%282009%29+DVDRip+XviD-SKITTLES","amp;tr":["udp%3A%2F%2Ftracker.openbittorrent.com%3A80","udp%3A%2F%2Fopen.demonii.com%3A1337","udp%3A%2F%2Ftracker.coppersurfer.tk%3A6969","udp%3A%2F%2Fexodus.desync.com%3A6969"],"infoHash":"dd2eb69eeb2b86d1ba98ff9c1fe8a167d4cae2e7","infoHashBuffer":{"type":"Buffer","data":[221,46,182,158,235,43,134,209,186,152,255,156,31,232,161,103,212,202,226,231]},"announce":[],"urlList":[]}}